<?xml version="1.0" encoding="utf-8"?>
<!-- Generator: Adobe Illustrator 17.0.0, SVG Export Plug-In . SVG Version: 6.00 Build 0)  -->
<!DOCTYPE svg PUBLIC "-//W3C//DTD SVG 1.1//EN" "http://www.w3.org/Graphics/SVG/1.1/DTD/svg11.dtd">
<svg version="1.1" id="Layer_1" xmlns="http://www.w3.org/2000/svg" xmlns:xlink="http://www.w3.org/1999/xlink" x="0px" y="0px"
	 width="450px" height="66.194px" viewBox="0 0 450 66.194" enable-background="new 0 0 450 66.194" xml:space="preserve">
<g>
	<g>
		<path fill="#FFFFFF" d="M0,18.208c0-2.758,0.487-5.258,1.461-7.497c0.973-2.24,2.304-4.154,3.992-5.745
			C7.14,3.376,9.128,2.15,11.416,1.29C13.705,0.43,16.147,0,18.744,0c2.661,0,5.176,0.43,7.546,1.29
			c2.369,0.86,4.349,2.021,5.939,3.481l-7.108,8.569c-0.65-0.844-1.46-1.485-2.434-1.923c-0.974-0.438-2.062-0.657-3.262-0.657
			c-0.973,0-1.882,0.17-2.726,0.511c-0.844,0.341-1.582,0.836-2.215,1.485c-0.633,0.65-1.128,1.436-1.485,2.361
			c-0.358,0.925-0.536,1.955-0.536,3.091c0,1.137,0.186,2.151,0.56,3.043c0.372,0.893,0.876,1.664,1.509,2.312
			c0.633,0.65,1.371,1.144,2.215,1.485c0.844,0.341,1.736,0.511,2.678,0.511c1.331,0,2.475-0.275,3.433-0.828
			c0.957-0.551,1.711-1.2,2.264-1.947l7.108,8.52c-1.558,1.558-3.473,2.799-5.745,3.724c-2.272,0.925-4.853,1.388-7.741,1.388
			c-2.597,0-5.039-0.438-7.327-1.315c-2.288-0.876-4.277-2.118-5.964-3.724c-1.688-1.607-3.019-3.522-3.992-5.745
			C0.487,23.409,0,20.934,0,18.208z"/>
		<path fill="#FFFFFF" d="M51.703,36.416c-2.694,0-5.039-0.374-7.035-1.12c-1.996-0.746-3.66-1.769-4.99-3.067
			c-1.331-1.298-2.321-2.831-2.97-4.601c-0.65-1.769-0.974-3.676-0.974-5.721V0.974h11.587v19.669c0,1.655,0.397,2.945,1.193,3.87
			c0.795,0.925,1.923,1.388,3.383,1.388s2.588-0.463,3.383-1.388c0.795-0.925,1.193-2.215,1.193-3.87V0.974h11.538v20.934
			c0,2.045-0.349,3.952-1.047,5.721c-0.698,1.769-1.728,3.303-3.091,4.601c-1.363,1.298-3.06,2.321-5.088,3.067
			C56.758,36.042,54.397,36.416,51.703,36.416z"/>
		<path fill="#FFFFFF" d="M73.871,0.974H88.72c1.687,0,3.367,0.17,5.039,0.511c1.671,0.341,3.165,0.942,4.479,1.801
			c1.315,0.86,2.377,2.013,3.189,3.457c0.811,1.444,1.217,3.254,1.217,5.428c0,2.11-0.518,3.968-1.554,5.575
			c-1.036,1.607-2.525,2.848-4.466,3.724l8.746,13.972H92.06l-6.603-12.317h-0.34v12.317H73.871V0.974z M85.02,15.53h2.271
			c0.386,0,0.813-0.032,1.28-0.097c0.467-0.065,0.902-0.202,1.304-0.414c0.402-0.211,0.741-0.503,1.015-0.876
			c0.274-0.373,0.411-0.868,0.411-1.485c0-0.616-0.113-1.103-0.338-1.46c-0.225-0.357-0.515-0.624-0.87-0.803
			c-0.354-0.178-0.741-0.292-1.159-0.341c-0.418-0.049-0.805-0.073-1.159-0.073H85.02V15.53z"/>
		<path fill="#FFFFFF" d="M109.41,0.974h11.684v34.469H109.41V0.974z"/>
		<path fill="#FFFFFF" d="M125.882,18.013c0-2.758,0.487-5.25,1.461-7.473c0.973-2.223,2.312-4.114,4.016-5.672
			c1.704-1.558,3.724-2.758,6.061-3.603C139.757,0.422,142.289,0,145.015,0s5.258,0.422,7.595,1.266
			c2.337,0.844,4.365,2.045,6.086,3.603c1.72,1.558,3.067,3.449,4.041,5.672c0.974,2.223,1.46,4.715,1.46,7.473
			c0,2.759-0.487,5.275-1.46,7.546c-0.974,2.272-2.321,4.211-4.041,5.818c-1.72,1.607-3.748,2.848-6.086,3.724
			c-2.337,0.876-4.868,1.315-7.595,1.315s-5.258-0.438-7.595-1.315c-2.337-0.876-4.357-2.118-6.061-3.724
			c-1.704-1.607-3.043-3.546-4.016-5.818C126.369,23.288,125.882,20.772,125.882,18.013z M138.199,18.013
			c0,1.137,0.17,2.175,0.511,3.116c0.341,0.942,0.811,1.753,1.412,2.434c0.6,0.682,1.322,1.21,2.167,1.583
			c0.844,0.373,1.753,0.56,2.726,0.56c0.974,0,1.874-0.186,2.702-0.56c0.828-0.373,1.549-0.901,2.166-1.583
			c0.616-0.681,1.095-1.492,1.436-2.434c0.341-0.941,0.511-1.979,0.511-3.116c0-1.103-0.17-2.118-0.511-3.043
			c-0.341-0.925-0.82-1.704-1.436-2.337c-0.617-0.633-1.339-1.127-2.166-1.485c-0.828-0.357-1.728-0.535-2.702-0.535
			c-0.974,0-1.883,0.178-2.726,0.535c-0.844,0.358-1.566,0.852-2.167,1.485c-0.601,0.633-1.071,1.412-1.412,2.337
			C138.369,15.895,138.199,16.91,138.199,18.013z"/>
		<path fill="#FFFFFF" d="M180.279,36.416c-1.396,0-2.768-0.122-4.114-0.363c-1.347-0.243-2.646-0.598-3.895-1.066
			c-1.25-0.469-2.427-1.017-3.53-1.647c-1.104-0.63-2.094-1.332-2.97-2.107l7.059-7.67c0.811,0.876,1.89,1.655,3.237,2.337
			c1.347,0.681,2.734,1.022,4.163,1.022c0.649,0,1.241-0.113,1.777-0.342c0.535-0.228,0.803-0.65,0.803-1.268
			c0-0.325-0.09-0.601-0.268-0.829c-0.178-0.227-0.495-0.463-0.949-0.707c-0.455-0.243-1.079-0.512-1.874-0.805
			c-0.796-0.292-1.793-0.634-2.994-1.025c-1.169-0.389-2.288-0.853-3.359-1.39c-1.071-0.536-2.021-1.195-2.848-1.975
			c-0.828-0.781-1.485-1.715-1.972-2.804c-0.487-1.089-0.73-2.398-0.73-3.927c0-2.145,0.438-3.966,1.314-5.462
			c0.876-1.495,2.004-2.723,3.383-3.682c1.379-0.959,2.929-1.65,4.649-2.073C178.883,0.211,180.587,0,182.275,0
			c2.271,0,4.584,0.438,6.937,1.314c2.353,0.876,4.422,2.142,6.207,3.798l-7.205,7.351c-0.779-0.974-1.737-1.712-2.872-2.215
			c-1.136-0.503-2.159-0.755-3.067-0.755c-0.844,0-1.526,0.122-2.045,0.365c-0.52,0.243-0.779,0.641-0.779,1.192
			c0,0.52,0.267,0.909,0.803,1.169c0.535,0.26,1.403,0.584,2.605,0.974c1.233,0.389,2.532,0.844,3.895,1.363
			c1.363,0.52,2.621,1.193,3.773,2.021c1.152,0.828,2.101,1.842,2.848,3.043c0.746,1.201,1.12,2.694,1.12,4.479
			c0,2.077-0.414,3.887-1.242,5.428c-0.828,1.542-1.915,2.823-3.262,3.846c-1.347,1.022-2.865,1.785-4.552,2.288
			C183.752,36.164,182.032,36.416,180.279,36.416z"/>
		<path fill="#FFFFFF" d="M199.801,0.974h11.684v34.469h-11.684V0.974z"/>
		<path fill="#FFFFFF" d="M235.877,35.442h-11.588V10.759h-8.471V0.974h28.529v9.786h-8.47V35.442z"/>
		<path fill="#FFFFFF" d="M270.02,35.442h-11.587V21.324l-12.998-20.35h13.972l5.453,10.126l5.209-10.126H283.7l-13.68,20.35V35.442
			z"/>
		<path fill="#FFFFFF" d="M318.106,29.843c-0.584,0.876-1.29,1.705-2.118,2.485c-0.827,0.781-1.785,1.468-2.872,2.061
			c-1.088,0.594-2.288,1.063-3.603,1.41c-1.314,0.346-2.75,0.519-4.309,0.519c-2.597,0-4.998-0.455-7.205-1.363
			c-2.207-0.909-4.106-2.167-5.695-3.773c-1.591-1.607-2.833-3.513-3.724-5.721c-0.894-2.207-1.339-4.625-1.339-7.254
			s0.454-5.046,1.364-7.254c0.908-2.207,2.167-4.114,3.773-5.72s3.505-2.864,5.695-3.773c2.191-0.908,4.568-1.363,7.132-1.363
			c1.266,0,2.508,0.132,3.724,0.396c1.218,0.264,2.361,0.635,3.432,1.113c1.072,0.479,2.045,1.053,2.922,1.722
			c0.876,0.67,1.607,1.427,2.191,2.27l-2.922,2.142c-0.358-0.551-0.836-1.103-1.436-1.655c-0.601-0.552-1.307-1.038-2.118-1.461
			c-0.811-0.421-1.696-0.762-2.653-1.022c-0.958-0.259-1.989-0.39-3.092-0.39c-2.239,0-4.243,0.405-6.012,1.213
			c-1.769,0.809-3.27,1.901-4.504,3.276c-1.234,1.375-2.174,2.968-2.823,4.78c-0.65,1.812-0.974,3.721-0.974,5.726
			c0,2.006,0.333,3.915,0.999,5.727c0.665,1.812,1.614,3.405,2.848,4.78c1.234,1.375,2.734,2.467,4.504,3.276
			c1.769,0.81,3.756,1.213,5.963,1.213c1.979,0,3.862-0.406,5.648-1.217c1.785-0.811,3.278-2.11,4.479-3.895L318.106,29.843z"/>
		<path fill="#FFFFFF" d="M325.733,0.974h3.505V15.92h18.793V0.974h3.505v34.469h-3.505V19.133h-18.793v16.309h-3.505V0.974z"/>
		<path fill="#FFFFFF" d="M366.644,35.442h-3.505V0.974h3.505V35.442z"/>
		<path fill="#FFFFFF" d="M402.687,30.331h0.097V0.974h3.505v34.469h-4.382L381.849,5.793h-0.097v29.649h-3.505V0.974h4.382
			L402.687,30.331z"/>
		<path fill="#FFFFFF" d="M417.649,35.442h-3.846L428.7,0.974h3.408l14.8,34.469h-3.895l-3.797-9.055h-17.819L417.649,35.442z
			 M422.712,23.174h15.189l-7.594-18.306L422.712,23.174z"/>
	</g>
	<g>
		<path fill="#FFFFFF" d="M146.646,49.785c0.799-0.105,1.746-0.168,2.525-0.168c3.745,0,6.48,1.851,6.48,5.659
			c0,5.049-3.703,7.111-7.994,7.111c-1.178,0-2.461-0.169-3.156-0.421L146.646,49.785z M144.984,61.671
			c0.631,0.21,1.62,0.337,2.672,0.337c4.123,0,7.573-1.936,7.573-6.732c0-3.534-2.545-5.28-6.059-5.28
			c-0.652,0-1.452,0.042-2.167,0.126L144.984,61.671z"/>
		<path fill="#FFFFFF" d="M159.626,62.261h-0.4l1.62-9.172h0.4L159.626,62.261z M161.12,50.227c0-0.231,0.168-0.4,0.4-0.4
			c0.21,0,0.4,0.169,0.4,0.4c0,0.21-0.189,0.399-0.4,0.399C161.288,50.627,161.12,50.438,161.12,50.227z"/>
		<path fill="#FFFFFF" d="M164.991,64.743c0.694,0.568,1.767,1.094,3.051,1.094c1.956,0,3.24-0.842,3.681-3.303l0.168-0.967
			c-0.757,0.505-1.725,0.778-2.777,0.778c-2.398,0-4.208-1.536-4.208-4.123c0-3.051,1.936-5.28,5.28-5.28
			c1.389,0,2.756,0.547,3.45,1.031l-1.536,8.646c-0.463,2.693-1.957,3.576-4.06,3.576c-1.389,0-2.524-0.547-3.135-1.052
			L164.991,64.743z M173.195,54.161c-0.589-0.379-1.809-0.842-3.008-0.842c-3.114,0-4.86,2.041-4.86,4.902
			c0,2.314,1.599,3.766,3.787,3.766c1.073,0,2.041-0.295,2.861-0.82L173.195,54.161z"/>
		<path fill="#FFFFFF" d="M177.719,62.261h-0.4l1.62-9.172h0.4L177.719,62.261z M179.212,50.227c0-0.231,0.168-0.4,0.4-0.4
			c0.21,0,0.4,0.169,0.4,0.4c0,0.21-0.189,0.399-0.4,0.399C179.381,50.627,179.212,50.438,179.212,50.227z"/>
		<path fill="#FFFFFF" d="M183.356,53.088h1.283l0.358-2.083h0.421l-0.379,2.083h2.798l-0.063,0.358h-2.798l-1.157,6.522
			c-0.042,0.294-0.084,0.589-0.084,0.862c0,0.905,0.547,1.199,1.325,1.199c0.652,0,1.325-0.231,1.935-0.568l-0.084,0.42
			c-0.526,0.295-1.262,0.526-1.893,0.526c-0.968,0-1.704-0.399-1.704-1.536c0-0.252,0.042-0.526,0.105-0.863l1.157-6.563h-1.283
			L183.356,53.088z"/>
		<path fill="#FFFFFF" d="M192.382,53.677c0.736-0.4,1.893-0.736,2.861-0.736c1.641,0,2.504,0.715,2.504,2.23
			c0,0.231-0.021,0.463-0.063,0.737l-1.073,6.164c-0.883,0.231-1.599,0.336-2.314,0.336c-2.104,0-3.639-0.841-3.639-2.545
			c0-2.188,2.525-2.735,4.944-2.735h1.473l0.21-1.241c0.042-0.231,0.063-0.484,0.063-0.695c0-1.262-0.715-1.872-2.125-1.872
			c-1.01,0-2.125,0.337-2.903,0.757L192.382,53.677z M195.6,57.506c-2.209,0-4.523,0.42-4.523,2.356
			c0,1.431,1.367,2.188,3.219,2.188c0.61,0,1.22-0.105,1.957-0.273l0.757-4.27H195.6z"/>
		<path fill="#FFFFFF" d="M202.143,62.261h-0.4l2.524-14.305h0.4L202.143,62.261z"/>
		<path fill="#FFFFFF" d="M216.049,58.453h-7.174l-2.272,3.808h-0.463l7.51-12.559h0.589l3.198,12.559h-0.442L216.049,58.453z
			 M209.086,58.074h6.879l-2.062-8.016L209.086,58.074z"/>
		<path fill="#FFFFFF" d="M228.272,61.671c-0.736,0.463-1.809,0.736-2.84,0.736c-2.503,0-4.165-1.809-4.165-4.292
			c0-3.008,2.062-5.175,4.881-5.175c1.389,0,2.335,0.547,2.987,1.241l-0.126,0.42c-0.673-0.757-1.557-1.283-2.861-1.283
			c-2.609,0-4.46,1.999-4.46,4.796c0,2.251,1.452,3.913,3.745,3.913c1.031,0,2.062-0.273,2.903-0.842L228.272,61.671z"/>
		<path fill="#FFFFFF" d="M232.816,53.088h1.283l0.358-2.083h0.421l-0.379,2.083h2.798l-0.063,0.358h-2.798l-1.157,6.522
			c-0.042,0.294-0.084,0.589-0.084,0.862c0,0.905,0.547,1.199,1.325,1.199c0.652,0,1.325-0.231,1.936-0.568l-0.084,0.42
			c-0.526,0.295-1.262,0.526-1.893,0.526c-0.968,0-1.704-0.399-1.704-1.536c0-0.252,0.042-0.526,0.105-0.863l1.157-6.563h-1.283
			L232.816,53.088z"/>
		<path fill="#FFFFFF" d="M240.894,62.261h-0.399l1.62-9.172h0.399L240.894,62.261z M242.388,50.227c0-0.231,0.168-0.4,0.399-0.4
			c0.211,0,0.4,0.169,0.4,0.4c0,0.21-0.189,0.399-0.4,0.399C242.556,50.627,242.388,50.438,242.388,50.227z"/>
		<path fill="#FFFFFF" d="M246.953,53.088l1.83,8.793l5.364-8.793h0.442l-5.617,9.193h-0.484l-1.935-9.193H246.953z"/>
		<path fill="#FFFFFF" d="M258.398,53.677c0.736-0.4,1.893-0.736,2.861-0.736c1.641,0,2.504,0.715,2.504,2.23
			c0,0.231-0.021,0.463-0.063,0.737l-1.073,6.164c-0.884,0.231-1.599,0.336-2.314,0.336c-2.104,0-3.64-0.841-3.64-2.545
			c0-2.188,2.525-2.735,4.944-2.735h1.472l0.211-1.241c0.042-0.231,0.063-0.484,0.063-0.695c0-1.262-0.715-1.872-2.125-1.872
			c-1.01,0-2.125,0.337-2.903,0.757L258.398,53.677z M261.616,57.506c-2.209,0-4.523,0.42-4.523,2.356
			c0,1.431,1.367,2.188,3.219,2.188c0.61,0,1.22-0.105,1.956-0.273l0.758-4.27H261.616z"/>
		<path fill="#FFFFFF" d="M268.097,53.088h1.283l0.358-2.083h0.421l-0.379,2.083h2.798l-0.063,0.358h-2.798l-1.157,6.522
			c-0.042,0.294-0.084,0.589-0.084,0.862c0,0.905,0.547,1.199,1.325,1.199c0.652,0,1.325-0.231,1.936-0.568l-0.084,0.42
			c-0.526,0.295-1.263,0.526-1.893,0.526c-0.968,0-1.704-0.399-1.704-1.536c0-0.252,0.042-0.526,0.105-0.863l1.157-6.563h-1.283
			L268.097,53.088z"/>
		<path fill="#FFFFFF" d="M276.174,62.261h-0.399l1.62-9.172h0.399L276.174,62.261z M277.668,50.227c0-0.231,0.168-0.4,0.399-0.4
			c0.211,0,0.4,0.169,0.4,0.4c0,0.21-0.189,0.399-0.4,0.399C277.836,50.627,277.668,50.438,277.668,50.227z"/>
		<path fill="#FFFFFF" d="M281.455,58.137c0-2.819,1.872-5.196,4.86-5.196c2.461,0,4.123,1.809,4.123,4.27
			c0,2.798-1.872,5.196-4.839,5.196C283.138,62.408,281.455,60.577,281.455,58.137z M290.017,57.212
			c0-2.209-1.514-3.892-3.702-3.892c-2.714,0-4.439,2.146-4.439,4.817c0,2.188,1.515,3.892,3.724,3.892
			C288.292,62.029,290.017,59.862,290.017,57.212z"/>
		<path fill="#FFFFFF" d="M300.894,62.261l0.989-5.533c0.105-0.547,0.126-0.968,0.126-1.284c0-1.493-0.968-2.104-2.672-2.104
			c-1.178,0-2.272,0.316-3.324,0.695l-1.452,8.225h-0.399l1.493-8.499c1.284-0.463,2.419-0.82,3.682-0.82
			c1.977,0,3.071,0.757,3.071,2.44c0,0.294-0.021,0.715-0.126,1.325l-0.989,5.554H300.894z"/>
	</g>
	<g>
		<line fill="#FFFFFF" x1="137.418" y1="56.707" x2="0" y2="56.707"/>
		<rect x="0" y="56.492" fill="#FFFFFF" width="137.418" height="0.43"/>
	</g>
	<g>
		<line fill="#FFFFFF" x1="450" y1="56.707" x2="312.582" y2="56.707"/>
		<rect x="312.582" y="56.492" fill="#FFFFFF" width="137.418" height="0.43"/>
	</g>
</g>
</svg>
