<?xml version="1.0" encoding="utf-8"?>
<!-- Generator: Adobe Illustrator 17.0.0, SVG Export Plug-In . SVG Version: 6.00 Build 0)  -->
<!DOCTYPE svg PUBLIC "-//W3C//DTD SVG 1.1//EN" "http://www.w3.org/Graphics/SVG/1.1/DTD/svg11.dtd">
<svg version="1.1" id="Layer_1" xmlns="http://www.w3.org/2000/svg" xmlns:xlink="http://www.w3.org/1999/xlink" x="0px" y="0px"
	 width="475.868px" height="69.644px" viewBox="22.066 0 475.868 69.644" enable-background="new 22.066 0 475.868 69.644"
	 xml:space="preserve">
<g>
	<g>
		<path fill="#FFFFFF" d="M22.066,19.254c0-2.917,0.515-5.56,1.545-7.928c1.029-2.368,2.436-4.393,4.221-6.076
			c1.784-1.681,3.887-2.977,6.307-3.887S39.14,0,41.887,0c2.814,0,5.474,0.455,7.98,1.364c2.504,0.909,4.599,2.137,6.281,3.681
			l-7.517,9.061c-0.687-0.892-1.544-1.57-2.574-2.033c-1.029-0.464-2.18-0.695-3.449-0.695c-1.029,0-1.991,0.18-2.883,0.54
			c-0.892,0.36-1.673,0.884-2.343,1.57c-0.669,0.687-1.193,1.519-1.57,2.497c-0.378,0.978-0.567,2.068-0.567,3.269
			c0,1.202,0.197,2.274,0.592,3.218c0.394,0.945,0.927,1.76,1.596,2.445c0.669,0.687,1.45,1.21,2.343,1.57
			c0.892,0.36,1.836,0.54,2.832,0.54c1.407,0,2.617-0.291,3.63-0.875c1.012-0.583,1.81-1.269,2.393-2.06l7.517,9.01
			c-1.648,1.648-3.673,2.96-6.075,3.938c-2.403,0.978-5.132,1.468-8.186,1.468c-2.746,0-5.328-0.464-7.749-1.39
			c-2.42-0.927-4.522-2.239-6.307-3.939c-1.785-1.7-3.192-3.724-4.221-6.076C22.581,24.755,22.066,22.138,22.066,19.254z"/>
		<path fill="#FFFFFF" d="M76.741,38.509c-2.849,0-5.328-0.396-7.44-1.184c-2.112-0.788-3.87-1.871-5.277-3.243
			c-1.408-1.372-2.454-2.994-3.141-4.865c-0.687-1.871-1.029-3.887-1.029-6.049V1.029h12.253v20.799c0,1.751,0.42,3.115,1.261,4.092
			c0.84,0.978,2.033,1.468,3.578,1.468s2.736-0.489,3.578-1.468c0.84-0.978,1.261-2.343,1.261-4.092V1.029h12.202v22.138
			c0,2.162-0.369,4.179-1.107,6.049c-0.738,1.871-1.828,3.493-3.269,4.865c-1.441,1.373-3.236,2.454-5.381,3.243
			C82.086,38.115,79.589,38.509,76.741,38.509z"/>
		<path fill="#FFFFFF" d="M100.183,1.029h15.703c1.784,0,3.56,0.18,5.328,0.54c1.767,0.36,3.346,0.996,4.736,1.905
			c1.39,0.909,2.514,2.129,3.372,3.656c0.858,1.528,1.287,3.441,1.287,5.74c0,2.232-0.547,4.196-1.643,5.895
			c-1.096,1.699-2.67,3.012-4.722,3.938l9.249,14.776h-14.075l-6.982-13.025h-0.359v13.025h-11.893V1.029z M111.973,16.423h2.402
			c0.408,0,0.859-0.034,1.354-0.103c0.494-0.068,0.953-0.214,1.379-0.437c0.426-0.223,0.783-0.532,1.073-0.927
			c0.289-0.395,0.435-0.918,0.435-1.57c0-0.651-0.12-1.166-0.358-1.544c-0.238-0.377-0.545-0.66-0.919-0.849
			c-0.375-0.188-0.784-0.309-1.226-0.36c-0.442-0.051-0.851-0.077-1.226-0.077h-2.912L111.973,16.423L111.973,16.423z"/>
		<path fill="#FFFFFF" d="M137.765,1.029h12.356v36.45h-12.356V1.029z"/>
		<path fill="#FFFFFF" d="M155.184,19.049c0-2.917,0.515-5.551,1.545-7.902c1.029-2.351,2.445-4.35,4.247-5.998
			c1.801-1.648,3.938-2.917,6.409-3.809C169.857,0.447,172.534,0,175.417,0c2.884,0,5.56,0.447,8.032,1.339
			c2.472,0.893,4.616,2.162,6.436,3.809c1.82,1.647,3.244,3.648,4.273,5.998s1.544,4.985,1.544,7.902s-0.515,5.578-1.544,7.98
			c-1.029,2.403-2.454,4.453-4.273,6.153c-1.819,1.699-3.964,3.012-6.436,3.939c-2.471,0.927-5.148,1.39-8.032,1.39
			c-2.884,0-5.56-0.464-8.032-1.39c-2.471-0.927-4.608-2.239-6.409-3.939c-1.801-1.7-3.218-3.75-4.247-6.153
			C155.699,24.627,155.184,21.966,155.184,19.049z M168.21,19.049c0,1.202,0.18,2.3,0.541,3.296c0.36,0.996,0.858,1.853,1.493,2.574
			c0.635,0.721,1.399,1.279,2.292,1.673c0.892,0.395,1.853,0.592,2.883,0.592c1.029,0,1.982-0.197,2.857-0.592
			c0.875-0.395,1.639-0.952,2.291-1.673c0.652-0.72,1.159-1.578,1.519-2.574c0.36-0.995,0.54-2.093,0.54-3.296
			c0-1.166-0.18-2.239-0.54-3.217s-0.868-1.801-1.519-2.472c-0.652-0.669-1.416-1.192-2.291-1.57
			c-0.875-0.377-1.828-0.567-2.857-0.567c-1.029,0-1.991,0.189-2.883,0.567c-0.893,0.378-1.656,0.901-2.292,1.57
			c-0.636,0.669-1.133,1.493-1.493,2.472C168.39,16.809,168.21,17.883,168.21,19.049z"/>
		<path fill="#FFFFFF" d="M212.708,38.509c-1.477,0-2.926-0.129-4.35-0.384c-1.424-0.256-2.798-0.632-4.119-1.127
			c-1.322-0.496-2.566-1.076-3.732-1.742c-1.168-0.666-2.214-1.409-3.141-2.228l7.465-8.111c0.858,0.927,1.999,1.751,3.424,2.472
			c1.424,0.72,2.892,1.081,4.402,1.081c0.686,0,1.312-0.12,1.879-0.361c0.567-0.241,0.849-0.687,0.849-1.341
			c0-0.344-0.095-0.636-0.284-0.877c-0.189-0.24-0.524-0.49-1.004-0.748c-0.481-0.257-1.141-0.541-1.982-0.851
			c-0.841-0.309-1.896-0.67-3.166-1.084c-1.236-0.412-2.42-0.902-3.552-1.47c-1.133-0.567-2.137-1.264-3.012-2.089
			c-0.875-0.826-1.57-1.813-2.085-2.965c-0.515-1.152-0.772-2.535-0.772-4.152c0-2.269,0.463-4.194,1.39-5.776
			c0.927-1.581,2.119-2.88,3.578-3.894c1.459-1.014,3.097-1.744,4.917-2.192C211.232,0.224,213.034,0,214.819,0
			c2.402,0,4.848,0.463,7.336,1.39c2.488,0.927,4.676,2.265,6.564,4.016l-7.62,7.774c-0.824-1.029-1.837-1.811-3.037-2.343
			c-1.201-0.531-2.283-0.798-3.243-0.798c-0.893,0-1.614,0.129-2.162,0.386c-0.549,0.257-0.824,0.678-0.824,1.261
			c0,0.549,0.283,0.961,0.849,1.236c0.567,0.276,1.484,0.617,2.755,1.029c1.304,0.412,2.677,0.893,4.119,1.441
			c1.441,0.549,2.771,1.261,3.989,2.137c1.218,0.875,2.222,1.949,3.012,3.218c0.789,1.269,1.184,2.849,1.184,4.736
			c0,2.197-0.437,4.11-1.313,5.74c-0.875,1.631-2.025,2.985-3.449,4.067c-1.425,1.081-3.03,1.888-4.813,2.42
			C216.38,38.243,214.561,38.509,212.708,38.509z"/>
		<path fill="#FFFFFF" d="M233.352,1.029h12.356v36.45h-12.356V1.029z"/>
		<path fill="#FFFFFF" d="M271.502,37.48h-12.254V11.378h-8.958V1.029h30.168v10.348h-8.957L271.502,37.48L271.502,37.48z"/>
		<path fill="#FFFFFF" d="M307.608,37.48h-12.254V22.55l-13.745-21.52h14.775l5.766,10.708l5.509-10.708h14.415l-14.466,21.52
			L307.608,37.48L307.608,37.48z"/>
		<path fill="#FFFFFF" d="M358.458,31.559c-0.617,0.927-1.364,1.802-2.24,2.628c-0.875,0.826-1.888,1.552-3.037,2.18
			c-1.15,0.627-2.42,1.124-3.809,1.49c-1.39,0.366-2.908,0.549-4.557,0.549c-2.746,0-5.285-0.481-7.62-1.441
			c-2.333-0.961-4.341-2.292-6.023-3.99c-1.682-1.699-2.995-3.715-3.938-6.049c-0.945-2.333-1.417-4.891-1.417-7.671
			s0.48-5.336,1.442-7.671c0.96-2.333,2.292-4.35,3.99-6.049s3.707-3.029,6.023-3.99c2.317-0.96,4.831-1.441,7.542-1.441
			c1.34,0,2.652,0.14,3.939,0.418c1.288,0.279,2.497,0.671,3.629,1.177c1.133,0.507,2.162,1.113,3.089,1.821
			s1.699,1.509,2.317,2.401l-3.089,2.265c-0.378-0.583-0.884-1.167-1.519-1.751c-0.636-0.584-1.382-1.099-2.24-1.545
			c-0.858-0.446-1.794-0.806-2.805-1.08c-1.013-0.275-2.102-0.412-3.27-0.412c-2.368,0-4.488,0.428-6.357,1.283
			c-1.872,0.856-3.458,2.01-4.762,3.464c-1.305,1.454-2.299,3.139-2.985,5.055c-0.688,1.916-1.03,3.935-1.03,6.055
			c0,2.122,0.352,4.139,1.056,6.056c0.703,1.916,1.707,3.6,3.012,5.054s2.892,2.609,4.762,3.464
			c1.871,0.856,3.972,1.283,6.307,1.283c2.093,0,4.084-0.429,5.972-1.288c1.887-0.858,3.467-2.231,4.737-4.119L358.458,31.559z"/>
		<path fill="#FFFFFF" d="M366.523,1.029h3.707v15.805h19.873V1.029h3.707v36.45h-3.707V20.233H370.23V37.48h-3.707V1.029z"/>
		<path fill="#FFFFFF" d="M409.786,37.48h-3.707V1.029h3.707V37.48z"/>
		<path fill="#FFFFFF" d="M447.9,32.075h0.103V1.029h3.707v36.45h-4.634l-21.21-31.353h-0.103V37.48h-3.707V1.029h4.634
			L447.9,32.075z"/>
		<path fill="#FFFFFF" d="M463.723,37.48h-4.068l15.753-36.45h3.604l15.651,36.45h-4.119l-4.015-9.576h-18.844L463.723,37.48z
			 M469.078,24.506h16.062l-8.031-19.358L469.078,24.506z"/>
	</g>
	<g opacity="0.7">
		<path fill="#FFFFFF" d="M177.141,52.291c0.846-0.111,1.846-0.177,2.67-0.177c3.959,0,6.852,1.958,6.852,5.985
			c0,5.339-3.916,7.52-8.454,7.52c-1.246,0-2.603-0.178-3.337-0.446L177.141,52.291z M175.385,64.861
			c0.667,0.222,1.713,0.356,2.825,0.356c4.36,0,8.009-2.047,8.009-7.119c0-3.738-2.692-5.584-6.407-5.584
			c-0.69,0-1.535,0.044-2.292,0.133L175.385,64.861z"/>
		<path fill="#FFFFFF" d="M190.868,65.484h-0.423l1.713-9.699h0.423L190.868,65.484z M192.448,52.759
			c0-0.245,0.178-0.423,0.423-0.423c0.222,0,0.423,0.178,0.423,0.423c0,0.222-0.2,0.422-0.423,0.422
			C192.625,53.181,192.448,52.981,192.448,52.759z"/>
		<path fill="#FFFFFF" d="M196.541,68.109c0.734,0.601,1.869,1.157,3.226,1.157c2.069,0,3.426-0.89,3.893-3.493l0.178-1.023
			c-0.801,0.534-1.824,0.823-2.936,0.823c-2.536,0-4.45-1.624-4.45-4.36c0-3.226,2.047-5.584,5.584-5.584
			c1.469,0,2.915,0.578,3.648,1.09l-1.624,9.144c-0.489,2.847-2.069,3.781-4.294,3.781c-1.469,0-2.67-0.578-3.315-1.112
			L196.541,68.109z M205.217,56.918c-0.623-0.401-1.913-0.89-3.181-0.89c-3.293,0-5.139,2.158-5.139,5.183
			c0,2.447,1.691,3.982,4.005,3.982c1.135,0,2.158-0.312,3.025-0.868L205.217,56.918z"/>
		<path fill="#FFFFFF" d="M210.001,65.484h-0.423l1.713-9.699h0.423L210.001,65.484z M211.58,52.759
			c0-0.245,0.178-0.423,0.423-0.423c0.222,0,0.423,0.178,0.423,0.423c0,0.222-0.2,0.422-0.423,0.422
			C211.758,53.181,211.58,52.981,211.58,52.759z"/>
		<path fill="#FFFFFF" d="M215.963,55.784h1.357l0.378-2.203h0.445l-0.4,2.203h2.959l-0.066,0.378h-2.959l-1.223,6.897
			c-0.045,0.311-0.089,0.622-0.089,0.911c0,0.957,0.578,1.269,1.401,1.269c0.689,0,1.401-0.245,2.046-0.601l-0.089,0.445
			c-0.557,0.312-1.335,0.557-2.002,0.557c-1.023,0-1.801-0.422-1.801-1.624c0-0.267,0.045-0.557,0.111-0.912l1.223-6.94h-1.357
			L215.963,55.784z"/>
		<path fill="#FFFFFF" d="M225.507,56.407c0.778-0.423,2.002-0.778,3.025-0.778c1.735,0,2.647,0.757,2.647,2.358
			c0,0.245-0.023,0.49-0.067,0.779l-1.135,6.518c-0.934,0.245-1.691,0.356-2.447,0.356c-2.224,0-3.848-0.889-3.848-2.692
			c0-2.313,2.67-2.892,5.228-2.892h1.557l0.222-1.312c0.045-0.245,0.067-0.512,0.067-0.735c0-1.335-0.757-1.98-2.247-1.98
			c-1.068,0-2.247,0.356-3.07,0.801L225.507,56.407z M228.91,60.456c-2.336,0-4.783,0.445-4.783,2.492
			c0,1.513,1.446,2.313,3.404,2.313c0.646,0,1.29-0.112,2.069-0.289l0.801-4.516C230.401,60.456,228.91,60.456,228.91,60.456z"/>
		<path fill="#FFFFFF" d="M235.829,65.484h-0.423l2.67-15.127h0.423L235.829,65.484z"/>
		<path fill="#FFFFFF" d="M250.534,61.457h-7.586l-2.403,4.027h-0.489l7.942-13.281h0.623l3.382,13.281h-0.467L250.534,61.457z
			 M243.171,61.057h7.275l-2.181-8.476L243.171,61.057z"/>
		<path fill="#FFFFFF" d="M263.46,64.861c-0.778,0.489-1.913,0.778-3.004,0.778c-2.647,0-4.405-1.913-4.405-4.539
			c0-3.181,2.181-5.473,5.162-5.473c1.469,0,2.469,0.578,3.159,1.312l-0.134,0.445c-0.712-0.801-1.647-1.357-3.025-1.357
			c-2.759,0-4.716,2.113-4.716,5.072c0,2.381,1.535,4.139,3.959,4.139c1.09,0,2.181-0.289,3.07-0.89L263.46,64.861z"/>
		<path fill="#FFFFFF" d="M268.265,55.784h1.357L270,53.582h0.445l-0.401,2.203h2.959l-0.067,0.378h-2.958l-1.224,6.897
			c-0.045,0.311-0.089,0.622-0.089,0.911c0,0.957,0.578,1.269,1.401,1.269c0.69,0,1.401-0.245,2.047-0.601l-0.089,0.445
			c-0.557,0.312-1.335,0.557-2.002,0.557c-1.024,0-1.802-0.422-1.802-1.624c0-0.267,0.045-0.557,0.111-0.912l1.223-6.94h-1.357
			L268.265,55.784z"/>
		<path fill="#FFFFFF" d="M276.808,65.484h-0.422l1.713-9.699h0.422L276.808,65.484z M278.388,52.759
			c0-0.245,0.177-0.423,0.422-0.423c0.223,0,0.423,0.178,0.423,0.423c0,0.222-0.2,0.422-0.423,0.422
			C278.565,53.181,278.388,52.981,278.388,52.759z"/>
		<path fill="#FFFFFF" d="M283.215,55.784l1.935,9.299l5.673-9.299h0.467l-5.94,9.722h-0.512l-2.046-9.722H283.215z"/>
		<path fill="#FFFFFF" d="M295.317,56.407c0.778-0.423,2.002-0.778,3.025-0.778c1.735,0,2.647,0.757,2.647,2.358
			c0,0.245-0.023,0.49-0.067,0.779l-1.135,6.518c-0.935,0.245-1.691,0.356-2.447,0.356c-2.224,0-3.849-0.889-3.849-2.692
			c0-2.313,2.67-2.892,5.228-2.892h1.557l0.223-1.312c0.044-0.245,0.066-0.512,0.066-0.735c0-1.335-0.757-1.98-2.247-1.98
			c-1.068,0-2.247,0.356-3.07,0.801L295.317,56.407z M298.721,60.456c-2.336,0-4.783,0.445-4.783,2.492
			c0,1.513,1.446,2.313,3.404,2.313c0.645,0,1.29-0.112,2.069-0.289l0.801-4.516C300.212,60.456,298.721,60.456,298.721,60.456z"/>
		<path fill="#FFFFFF" d="M305.574,55.784h1.357l0.378-2.203h0.445l-0.401,2.203h2.959l-0.067,0.378h-2.958l-1.224,6.897
			c-0.045,0.311-0.089,0.622-0.089,0.911c0,0.957,0.578,1.269,1.401,1.269c0.69,0,1.401-0.245,2.047-0.601l-0.088,0.445
			c-0.557,0.312-1.335,0.557-2.002,0.557c-1.024,0-1.802-0.422-1.802-1.624c0-0.267,0.045-0.557,0.111-0.912l1.224-6.94h-1.357
			L305.574,55.784z"/>
		<path fill="#FFFFFF" d="M314.116,65.484h-0.422l1.713-9.699h0.422L314.116,65.484z M315.696,52.759
			c0-0.245,0.177-0.423,0.422-0.423c0.223,0,0.423,0.178,0.423,0.423c0,0.222-0.2,0.422-0.423,0.422
			C315.874,53.181,315.696,52.981,315.696,52.759z"/>
		<path fill="#FFFFFF" d="M319.7,61.123c0-2.981,1.98-5.494,5.139-5.494c2.603,0,4.36,1.913,4.36,4.516
			c0,2.958-1.98,5.494-5.117,5.494C321.48,65.639,319.7,63.704,319.7,61.123z M328.754,60.145c0-2.336-1.601-4.116-3.915-4.116
			c-2.87,0-4.694,2.269-4.694,5.094c0,2.313,1.602,4.116,3.939,4.116C326.931,65.239,328.754,62.947,328.754,60.145z"/>
		<path fill="#FFFFFF" d="M340.256,65.484l1.046-5.851c0.112-0.578,0.134-1.024,0.134-1.358c0-1.58-1.024-2.224-2.825-2.224
			c-1.246,0-2.403,0.334-3.516,0.735l-1.535,8.698h-0.422l1.58-8.987c1.358-0.49,2.558-0.868,3.894-0.868
			c2.091,0,3.247,0.801,3.247,2.581c0,0.311-0.023,0.757-0.133,1.401l-1.046,5.873H340.256z"/>
	</g>
	<g opacity="0.7">
		<line fill="#FFFFFF" x1="167.384" y1="59.999" x2="22.066" y2="59.999"/>
		<rect x="22.066" y="59.75" fill="#FFFFFF" width="145.317" height="0.5"/>
	</g>
	<g opacity="0.7">
		<line fill="#FFFFFF" x1="497.934" y1="59.999" x2="352.616" y2="59.999"/>
		<rect x="352.616" y="59.75" fill="#FFFFFF" width="145.318" height="0.5"/>
	</g>
</g>
</svg>
