<?xml version="1.0" encoding="utf-8"?>
<!-- Generator: Adobe Illustrator 17.0.0, SVG Export Plug-In . SVG Version: 6.00 Build 0)  -->
<!DOCTYPE svg PUBLIC "-//W3C//DTD SVG 1.1//EN" "http://www.w3.org/Graphics/SVG/1.1/DTD/svg11.dtd">
<svg version="1.1" id="Layer_1" xmlns="http://www.w3.org/2000/svg" xmlns:xlink="http://www.w3.org/1999/xlink" x="0px" y="0px"
	 width="523.292px" height="42.347px" viewBox="19 -60 523.292 42.347" enable-background="new 19 -60 523.292 42.347"
	 xml:space="preserve">
<g>
	<g>
		<path fill="#FFFFFF" d="M19-38.827c0-3.208,0.566-6.114,1.699-8.718c1.132-2.604,2.679-4.831,4.642-6.681
			c1.962-1.848,4.274-3.274,6.935-4.274s5.5-1.5,8.521-1.5c3.094,0,6.02,0.5,8.775,1.5c2.754,1,5.057,2.35,6.907,4.048l-8.266,9.964
			c-0.755-0.981-1.698-1.727-2.831-2.236c-1.132-0.51-2.397-0.764-3.793-0.764c-1.132,0-2.189,0.198-3.17,0.594
			c-0.981,0.396-1.84,0.972-2.576,1.727c-0.736,0.756-1.312,1.67-1.727,2.746c-0.416,1.076-0.623,2.274-0.623,3.595
			c0,1.322,0.217,2.501,0.651,3.539c0.433,1.039,1.019,1.935,1.755,2.689c0.736,0.755,1.594,1.331,2.576,1.727
			c0.981,0.396,2.019,0.594,3.114,0.594c1.547,0,2.878-0.32,3.992-0.962c1.113-0.641,1.99-1.396,2.632-2.265l8.266,9.908
			c-1.812,1.812-4.039,3.255-6.68,4.331c-2.643,1.076-5.643,1.614-9.002,1.614c-3.02,0-5.859-0.51-8.521-1.529
			c-2.661-1.019-4.973-2.462-6.935-4.331c-1.963-1.869-3.51-4.095-4.642-6.681C19.566-32.778,19-35.656,19-38.827z"/>
		<path fill="#FFFFFF" d="M79.124-17.653c-3.133,0-5.859-0.435-8.181-1.302s-4.256-2.057-5.803-3.566
			c-1.548-1.509-2.699-3.292-3.454-5.35c-0.755-2.057-1.132-4.274-1.132-6.652v-24.345h13.474v22.872c0,1.925,0.462,3.425,1.387,4.5
			c0.924,1.076,2.236,1.614,3.935,1.614c1.699,0,3.009-0.538,3.935-1.614c0.924-1.076,1.387-2.576,1.387-4.5v-22.872H98.09v24.344
			c0,2.378-0.406,4.596-1.217,6.652c-0.812,2.058-2.01,3.841-3.595,5.35c-1.585,1.51-3.558,2.699-5.917,3.566
			C85.002-18.087,82.256-17.653,79.124-17.653z"/>
		<path fill="#FFFFFF" d="M104.902-58.868h17.268c1.962,0,3.915,0.198,5.859,0.594c1.943,0.396,3.68,1.095,5.208,2.095
			c1.529,1,2.765,2.341,3.708,4.02c0.943,1.68,1.415,3.784,1.415,6.312c0,2.454-0.602,4.614-1.807,6.482s-2.936,3.312-5.193,4.331
			l10.171,16.248h-15.478l-7.678-14.323h-0.395v14.323h-13.078V-58.868z M117.867-41.94h2.641c0.449,0,0.945-0.037,1.489-0.113
			c0.543-0.075,1.048-0.235,1.516-0.481c0.468-0.245,0.861-0.585,1.18-1.019c0.318-0.434,0.478-1.009,0.478-1.727
			c0-0.716-0.132-1.282-0.394-1.698c-0.262-0.415-0.599-0.726-1.011-0.934c-0.412-0.207-0.862-0.34-1.348-0.396
			s-0.936-0.085-1.348-0.085h-3.202L117.867-41.94L117.867-41.94z"/>
		<path fill="#FFFFFF" d="M146.229-58.868h13.587v40.083h-13.587V-58.868z"/>
		<path fill="#FFFFFF" d="M165.384-39.053c0-3.208,0.566-6.104,1.699-8.69c1.132-2.585,2.689-4.784,4.67-6.596
			s4.331-3.208,7.048-4.189c2.719-0.981,5.662-1.472,8.833-1.472s6.114,0.491,8.832,1.472c2.718,0.982,5.076,2.378,7.077,4.189
			c2.001,1.811,3.567,4.011,4.699,6.596s1.698,5.482,1.698,8.69c0,3.208-0.566,6.134-1.698,8.775
			c-1.132,2.642-2.699,4.897-4.699,6.766c-2,1.868-4.359,3.312-7.077,4.331c-2.717,1.019-5.661,1.529-8.832,1.529
			s-6.114-0.51-8.832-1.529c-2.717-1.019-5.067-2.462-7.048-4.331c-1.981-1.869-3.539-4.124-4.67-6.766
			C165.951-32.919,165.384-35.845,165.384-39.053z M179.708-39.053c0,1.322,0.198,2.529,0.595,3.624
			c0.396,1.095,0.943,2.038,1.642,2.831c0.698,0.793,1.538,1.407,2.52,1.84c0.981,0.434,2.038,0.651,3.17,0.651
			s2.18-0.217,3.142-0.651c0.962-0.434,1.802-1.047,2.519-1.84c0.717-0.792,1.274-1.735,1.67-2.831
			c0.396-1.094,0.594-2.302,0.594-3.624c0-1.282-0.198-2.462-0.594-3.538s-0.954-1.981-1.67-2.718
			c-0.717-0.736-1.557-1.311-2.519-1.727c-0.962-0.415-2.01-0.623-3.142-0.623s-2.189,0.208-3.17,0.623
			c-0.982,0.416-1.821,0.991-2.52,1.727s-1.246,1.642-1.642,2.718C179.906-41.516,179.708-40.335,179.708-39.053z"/>
		<path fill="#FFFFFF" d="M228.641-17.653c-1.624,0-3.218-0.142-4.784-0.422c-1.566-0.282-3.077-0.695-4.529-1.239
			c-1.454-0.545-2.822-1.183-4.104-1.916c-1.284-0.732-2.435-1.549-3.454-2.45l8.209-8.919c0.943,1.019,2.198,1.925,3.765,2.718
			c1.566,0.792,3.18,1.189,4.841,1.189c0.754,0,1.443-0.132,2.066-0.397s0.934-0.756,0.934-1.475c0-0.378-0.104-0.699-0.312-0.964
			c-0.208-0.264-0.576-0.539-1.104-0.822c-0.529-0.283-1.255-0.595-2.18-0.936c-0.925-0.34-2.085-0.737-3.481-1.192
			c-1.359-0.453-2.661-0.992-3.906-1.616c-1.246-0.624-2.35-1.39-3.312-2.297c-0.962-0.908-1.727-1.994-2.293-3.261
			c-0.566-1.267-0.849-2.788-0.849-4.566c0-2.495,0.509-4.612,1.528-6.352c1.019-1.739,2.33-3.167,3.935-4.282
			c1.604-1.115,3.406-1.918,5.407-2.41c2-0.492,3.982-0.738,5.944-0.738c2.641,0,5.331,0.509,8.067,1.528s5.142,2.491,7.218,4.416
			l-8.379,8.549c-0.906-1.132-2.02-1.991-3.34-2.576c-1.321-0.584-2.51-0.877-3.566-0.877c-0.982,0-1.775,0.142-2.378,0.425
			c-0.604,0.283-0.906,0.746-0.906,1.387c0,0.604,0.311,1.057,0.934,1.359c0.623,0.303,1.632,0.679,3.029,1.132
			c1.434,0.453,2.944,0.982,4.529,1.585c1.585,0.604,3.047,1.387,4.387,2.35c1.339,0.962,2.443,2.143,3.312,3.539
			c0.868,1.396,1.302,3.133,1.302,5.208c0,2.416-0.481,4.52-1.444,6.312c-0.962,1.793-2.227,3.283-3.793,4.472
			c-1.567,1.189-3.332,2.076-5.293,2.661C232.679-17.946,230.679-17.653,228.641-17.653z"/>
		<path fill="#FFFFFF" d="M251.342-58.868h13.587v40.083h-13.587V-58.868z"/>
		<path fill="#FFFFFF" d="M293.294-18.785h-13.475v-28.703h-9.851v-11.38h33.175v11.379h-9.85v28.704H293.294z"/>
		<path fill="#FFFFFF" d="M332.998-18.785h-13.475v-16.418l-15.115-23.665h16.248l6.341,11.775l6.058-11.775h15.852l-15.908,23.665
			v16.418H332.998z"/>
		<path fill="#FFFFFF" d="M388.916-25.296c-0.679,1.019-1.5,1.982-2.463,2.89c-0.962,0.908-2.076,1.707-3.34,2.397
			c-1.265,0.69-2.661,1.236-4.189,1.639c-1.528,0.402-3.198,0.604-5.011,0.604c-3.02,0-5.812-0.529-8.379-1.585
			c-2.566-1.057-4.774-2.52-6.623-4.388c-1.85-1.868-3.294-4.085-4.331-6.652c-1.039-2.566-1.558-5.378-1.558-8.436
			c0-3.058,0.528-5.868,1.586-8.436c1.056-2.566,2.52-4.784,4.388-6.652s4.076-3.331,6.623-4.388
			c2.548-1.056,5.312-1.585,8.294-1.585c1.473,0,2.916,0.154,4.331,0.46c1.416,0.307,2.746,0.738,3.991,1.294
			c1.246,0.557,2.378,1.224,3.397,2.003c1.019,0.779,1.868,1.659,2.548,2.64L384.783-51c-0.416-0.641-0.972-1.283-1.67-1.925
			c-0.699-0.642-1.52-1.208-2.463-1.699c-0.943-0.49-1.973-0.886-3.085-1.188c-1.114-0.302-2.312-0.453-3.596-0.453
			c-2.604,0-4.935,0.471-6.991,1.411c-2.058,0.941-3.803,2.21-5.237,3.809c-1.435,1.599-2.528,3.452-3.283,5.559
			c-0.756,2.107-1.133,4.327-1.133,6.658c0,2.333,0.387,4.552,1.161,6.659c0.773,2.107,1.877,3.959,3.312,5.558
			s3.18,2.869,5.237,3.809c2.057,0.941,4.368,1.411,6.935,1.411c2.302,0,4.491-0.472,6.567-1.416
			c2.075-0.943,3.812-2.453,5.209-4.529L388.916-25.296z"/>
		<path fill="#FFFFFF" d="M397.785-58.868h4.076v17.38h21.854v-17.38h4.076v40.083h-4.076v-18.966h-21.854v18.966h-4.076V-58.868z"
			/>
		<path fill="#FFFFFF" d="M445.359-18.785h-4.076v-40.083h4.076V-18.785z"/>
		<path fill="#FFFFFF" d="M487.272-24.729h0.113v-34.139h4.076v40.083h-5.096l-23.324-34.478h-0.113v34.478h-4.076v-40.083h5.096
			L487.272-24.729z"/>
		<path fill="#FFFFFF" d="M504.672-18.785h-4.473l17.323-40.083h3.963l17.211,40.083h-4.529l-4.415-10.53H509.03L504.672-18.785z
			 M510.56-33.052h17.663l-8.831-21.287L510.56-33.052z"/>
	</g>
</g>
</svg>
